<svg xmlns="http://www.w3.org/2000/svg" height="800" width="1200" clip-rule="evenodd" fill-rule="evenodd" stroke-linejoin="round" stroke-miterlimit="1.414" viewBox="-52.80075 -41.0145 457.6065 246.087"><path d="M14 98H0V2h36c15.991.02 27.924 9.568 28 26 .062 13.499-7.544 22.718-18 27l21 43H50L31 56H14zm18-85H14v32h19c6.945.085 16.896-4.208 17-16 .1-11.368-8.854-15.994-18-16zm104 56V57c.266-14.435-8.802-29.968-30-30-23.873-.037-33.128 19.361-33 36 .198 25.847 13.844 38.055 36 38 11.323-.028 18.333-3.349 25-7V83c-7.697 2.827-13.507 6.094-25 6-15.378-.126-20.943-11.926-21-20zM88 59h35v-3c-.103-8.569-5.964-18.035-17-18-12.641.04-18.124 11.505-18 18zm121 36V0l-14 4v26c-3.998-2.217-8.774-2.964-14-3-25.417-.178-33.159 18.474-33 37 .206 23.966 13.934 37.355 36 37 9.536-.153 16.876-1.923 25-6zm-14-53v44c-3.483 2.083-7.074 2.644-11 2.59-19.394-.269-20.962-17.383-21-24.59-.074-14.052 4.753-25.205 19-25 5.549.08 8.749.814 13 3z"/><path d="M224 35v63h14V43c2.83-2.403 6.16-3.99 12-4 8.12-.013 14.9 4.45 15 14v45h15V45c3.31-3.598 6.61-5.986 14-6 9.81-.018 12.96 5.983 13 14v45h14V49c-.24-17.729-14.61-22.041-24-22-13.3.058-17.66 3.74-24 8-5.26-5.019-10.17-8.056-22-8-14.04.066-19.75 3.47-27 8z" fill="#0d0d0d"/><path d="M335 31h15v67h-15z"/><circle r="9" cy="475" cx="1126" transform="translate(-846.056 -490.889) scale(1.05556)"/><path d="M104.966 136.807l2.458-.002 8.395 16.645 7.266-16.597 2.398.006-10.583 24.123c-.447 1.124-1.853 3.049-4.979 3.076-1.8.015-3.814-.744-4.701-2.078l1.822-1.256c.266.474 1.476 1.124 2.807 1.131 1.381.007 2.486-.567 3.005-1.666l1.791-4.104zm-23.25-8.804h2.144l.021 11.742c2.188-2.658 5.231-3.615 8.343-3.657 6.625-.088 9.909 4.996 9.919 10.534.011 6.332-4.884 10.303-9.687 10.376-3.732.057-6.726-1.52-8.562-3.78l.011 3.778-2.193.013zm2.117 18.613c.018-4.692 2.773-8.242 8.421-8.359 4.097-.086 7.559 2.543 7.631 8.278.067 5.328-4.309 8.302-7.631 8.259-5.598-.073-8.437-3.959-8.421-8.178zm57.542-17.602l2.791-.029 9.447 11.843 9.428-11.832 2.819-.009-10.816 13.624 11.448 14.391-2.809.002-10.09-12.613-10.053 12.612-2.812-.004 11.478-14.406zm30.29 7.982h2.188v20.007h-2.188zm0-8.011h2.188v2.94h-2.188zm11.245 10.879l-1.221-1.819c1.584-.982 3.176-1.97 7.152-1.869 3.9.099 8.35 2.978 8.323 6.818v14.015l-2.192.003-.001-2.371c-2.087 1.955-4.561 2.796-7.301 2.866-4.418.114-7.807-2.303-7.8-6.305.005-3.098 1.33-7.117 8.647-7.201 3.064-.036 6.457.858 6.457.858l.001-1.654c.054-2.155-2.469-4.826-6.581-4.829-2.619-.001-3.967.489-5.484 1.488zm12.066 7.288v4.064c-1.964 2.876-4.517 4.102-7.53 4.101-3.408 0-5.317-1.396-5.39-4.228-.082-3.214 2.186-4.863 6.624-4.899 2.1-.017 4.199.362 6.296.962zm18.403-10.997c5.709 0 10.339 4.865 10.339 10.857 0 5.992-4.63 10.857-10.339 10.857-5.704 0-10.335-4.865-10.335-10.857 0-5.992 4.631-10.857 10.335-10.857zm0 2.212c4.499 0 8.149 3.874 8.149 8.645 0 4.771-3.65 8.645-8.149 8.645-4.499 0-8.152-3.874-8.152-8.645 0-4.771 3.653-8.645 8.152-8.645zm16.229-1.389v19.993h2.16v-11.943c.03-2.387 1.76-6.7 6.77-6.699 2.63.001 5.54 1.323 5.67 4.182v14.46h2.2v-13.822c.02-1.896 2.46-4.548 6.38-4.611 3.52-.057 5.83 2.035 5.88 5.351v13.114h2.16v-13.007c.05-4.584-3.09-7.742-8.11-7.691-2.52.025-5 .759-7.09 3.296-1.44-2.016-3.58-3.508-7.27-3.473-2.24.021-4.51.766-6.59 2.977v-2.127zm38.492.018h2.187v20.007H268.1zm0-8.011h2.187v2.94H268.1z"/></svg>